<?xml version="1.0" encoding="UTF-8" standalone="no"?>
<!-- Created with Inkscape (http://www.inkscape.org/) -->
<svg
   xmlns:dc="http://purl.org/dc/elements/1.1/"
   xmlns:cc="http://creativecommons.org/ns#"
   xmlns:rdf="http://www.w3.org/1999/02/22-rdf-syntax-ns#"
   xmlns:svg="http://www.w3.org/2000/svg"
   xmlns="http://www.w3.org/2000/svg"
   xmlns:sodipodi="http://sodipodi.sourceforge.net/DTD/sodipodi-0.dtd"
   xmlns:inkscape="http://www.inkscape.org/namespaces/inkscape"
   width="65"
   height="23"
   id="svg2404"
   sodipodi:version="0.32"
   inkscape:version="0.46"
   version="1.0"
   sodipodi:docname="logo.svg"
   inkscape:output_extension="org.inkscape.output.svg.inkscape"
   inkscape:export-filename="/home/dbrook/dev/gitalist/root/logo.png"
   inkscape:export-xdpi="90"
   inkscape:export-ydpi="90">
  <defs
     id="defs2406">
    <inkscape:perspective
       sodipodi:type="inkscape:persp3d"
       inkscape:vp_x="0 : 11.502125 : 1"
       inkscape:vp_y="0 : 1000 : 0"
       inkscape:vp_z="71.847527 : 11.502125 : 1"
       inkscape:persp3d-origin="35.923763 : 7.6680832 : 1"
       id="perspective2400" />
  </defs>
  <sodipodi:namedview
     id="base"
     pagecolor="#ffffff"
     bordercolor="#666666"
     borderopacity="1.0"
     gridtolerance="10000"
     guidetolerance="10"
     objecttolerance="10"
     inkscape:pageopacity="0.0"
     inkscape:pageshadow="2"
     inkscape:zoom="7.9195959"
     inkscape:cx="35.923763"
     inkscape:cy="1.045551"
     inkscape:document-units="px"
     inkscape:current-layer="layer1"
     showgrid="false"
     inkscape:showpageshadow="false"
     inkscape:window-width="1280"
     inkscape:window-height="950"
     inkscape:window-x="0"
     inkscape:window-y="25">
    <inkscape:grid
       type="xygrid"
       id="grid2449"
       visible="true"
       enabled="true" />
  </sodipodi:namedview>
  <metadata
     id="metadata2409">
    <rdf:RDF>
      <cc:Work
         rdf:about="">
        <dc:format>image/svg+xml</dc:format>
        <dc:type
           rdf:resource="http://purl.org/dc/dcmitype/StillImage" />
      </cc:Work>
    </rdf:RDF>
  </metadata>
  <g
     inkscape:label="Layer 1"
     inkscape:groupmode="layer"
     id="layer1"
     transform="translate(-20.793031,-18.938722)">
    <text
       xml:space="preserve"
       style="font-size:40px;font-style:normal;font-weight:normal;line-height:125%;fill:#000000;fill-opacity:1;stroke:none;stroke-width:1px;stroke-linecap:butt;stroke-linejoin:miter;stroke-opacity:1;font-family:Bitstream Vera Sans"
       x="60.946594"
       y="35.124443"
       id="text2577"
       sodipodi:linespacing="125%"><tspan
         sodipodi:role="line"
         id="tspan2579"
         x="60.946594"
         y="35.124443"
         style="font-size:20px;font-style:italic;font-variant:normal;font-weight:normal;font-stretch:normal;text-align:start;line-height:125%;writing-mode:lr-tb;text-anchor:start;font-family:Candara;-inkscape-font-specification:Candara Italic">git</tspan></text>
    <path
       style="fill:#ff0000;fill-opacity:1;stroke:none;stroke-opacity:1"
       id="path3357"
       d="M 2.9800098,4.6496528 C 3.2880818,4.6583433 3.5963683,4.6566553 3.9045415,4.6581792 C 4.2900822,4.6480495 4.6799534,4.6882469 5.0628669,4.6352919 C 5.3415627,4.5839381 5.6225883,4.5523136 5.9053688,4.5367547 C 6.1586148,4.525911 6.4121605,4.5264303 6.6655841,4.5263393 C 6.9517438,4.5294138 7.2379286,4.5284888 7.5240995,4.5281299 C 7.7848081,4.527744 8.0455169,4.5275665 8.3062258,4.5274685 C 8.558755,4.527395 8.8112843,4.5273988 9.0638136,4.5273983 C 9.3162235,4.5274 9.5686335,4.5274028 9.8210434,4.5274043 C 10.073574,4.5274055 10.326104,4.5274056 10.578634,4.5274057 C 10.785275,4.5093013 11.024398,4.4841054 11.21515,4.3956888 C 11.416398,4.3090351 11.636109,4.2943885 11.852029,4.2819999 C 11.974627,4.276229 12.097361,4.2751928 12.220063,4.2738955 L 10.717011,5.3706722 C 10.596134,5.3743956 10.475147,5.3777149 10.354734,5.3898714 C 10.143057,5.4148447 9.938646,5.4621628 9.739379,5.5391785 C 9.519194,5.5818357 9.300299,5.6371449 9.0738739,5.6206779 C 8.8213422,5.620678 8.5688106,5.6206781 8.3162789,5.6206801 C 8.0638608,5.6206826 7.8114426,5.6206872 7.5590244,5.6206935 C 7.3065562,5.6206971 7.054088,5.6207114 6.8016198,5.6206066 C 6.5416878,5.6204588 6.2817558,5.6202017 6.0218249,5.6194038 C 5.7348811,5.6185593 5.4479171,5.6167199 5.1609836,5.6200676 C 4.9100951,5.6212274 4.6589774,5.6224823 4.4085648,5.6397412 C 4.1302379,5.6620999 3.8546293,5.7044164 3.5772175,5.7351221 C 3.1892034,5.7518431 2.8004601,5.7331854 2.412181,5.7424426 C 2.0961821,5.7439843 1.7800839,5.7424472 1.464178,5.7509691 L 2.9800098,4.6496528 z"
       transform="translate(20.793031,18.938722)" />
    <path
       style="fill:#ff0000;fill-opacity:1;stroke:none;stroke-opacity:1"
       id="path3359"
       d="M 15.250399,4.5523455 C 15.590061,4.6402633 15.939932,4.6849319 16.280783,4.7668885 C 16.564174,4.8441138 16.854443,4.8817339 17.146909,4.8990287 C 17.399102,4.9098761 17.651613,4.9082786 17.903977,4.9078487 C 18.196362,4.8994477 18.48183,4.9060295 18.769953,4.954769 C 19.026435,5.0019753 19.286577,5.0188065 19.546736,5.0279525 C 19.798361,5.0344119 20.050099,5.0335836 20.301785,5.033395 C 20.554174,5.0330364 20.806562,5.0327599 21.058951,5.0326104 C 21.363806,5.0344648 21.668672,5.0355902 21.973534,5.0351006 C 22.256547,5.0342111 22.53956,5.0333216 22.822574,5.0328558 C 23.076911,5.0325027 23.331247,5.0324842 23.585583,5.0324647 C 23.837759,5.0324579 24.089935,5.0324695 24.34211,5.0324751 C 24.556292,5.0323195 24.775741,4.98369 24.945116,4.8497032 C 22.230527,6.5415415 23.325761,5.7734246 23.936091,5.386159 C 25.664647,4.3818697 25.018714,4.6323031 25.743129,4.3594463 L 24.285165,5.5176185 C 23.679415,5.8500541 24.148817,5.5935527 25.670884,4.7083218 C 24.971451,5.1881669 24.19828,5.5365941 23.494352,6.0234103 C 23.285581,6.1061415 23.061433,6.1343034 22.837331,6.1257613 C 22.585146,6.1257668 22.332961,6.1257785 22.080776,6.1257712 C 21.8268,6.1257511 21.572824,6.1257319 21.318849,6.1253744 C 21.037899,6.1249056 20.75695,6.1240082 20.476001,6.1231311 C 20.168754,6.1226612 19.861503,6.1238295 19.554265,6.1259938 C 19.301825,6.1262062 19.049385,6.1266353 18.796945,6.1266198 C 18.543601,6.1261977 18.290119,6.1261239 18.037005,6.1139367 C 17.773731,6.0982577 17.511863,6.0695772 17.252032,6.0234681 C 16.968885,5.9867088 16.684036,5.9998178 16.399079,6.0011342 C 16.144185,6.0005097 15.888907,6.0003272 15.634679,5.9794826 C 15.340021,5.9501258 15.050044,5.8949689 14.763813,5.8185376 C 14.417768,5.7462516 14.070072,5.6758601 13.720196,5.6259461 L 15.250399,4.5523455 z"
       transform="translate(20.793031,18.938722)" />
    <path
       style="fill:#ff0000;fill-opacity:1;stroke:none;stroke-opacity:1"
       id="path3361"
       d="M 29.263724,4.7095281 C 29.543559,4.8008603 29.827126,4.8860904 30.113393,4.9564493 C 30.34092,5.0605715 30.57723,5.1193953 30.825121,5.1432959 C 31.137783,5.1697008 31.451743,5.1480706 31.763125,5.1862517 C 32.097281,5.2339857 32.433502,5.2624205 32.770587,5.2773118 C 33.034287,5.2866749 33.298197,5.2861541 33.562022,5.2860801 C 33.813967,5.2857484 34.065913,5.2853866 34.317858,5.2851965 C 34.570186,5.2850362 34.822513,5.2850255 35.074841,5.2850147 C 35.352046,5.2851166 35.629234,5.2868659 35.906443,5.2865131 C 36.180245,5.2863591 36.454048,5.2843413 36.727845,5.2864149 C 37.04472,5.2979745 37.355267,5.2922269 37.667843,5.2407986 C 37.96856,5.1837264 38.279499,5.2040028 38.578247,5.1418173 C 38.839416,5.0907446 39.101827,5.0275269 39.35035,4.9310873 C 39.194946,4.9727956 39.826949,4.660365 39.66612,4.7539434 C 36.910653,6.3572034 37.855073,5.8664227 38.350928,5.4796749 L 40.075242,4.7799543 C 39.460002,5.369098 38.652116,5.7191844 37.883509,6.0714455 C 37.623385,6.1466605 37.363086,6.2223438 37.093333,6.255085 C 36.789944,6.2847538 36.484875,6.2995069 36.18379,6.3506077 C 35.865823,6.3867145 35.546458,6.3736197 35.226924,6.376897 C 34.95322,6.3789267 34.67951,6.3769901 34.405801,6.3767916 C 34.127221,6.3764318 33.848662,6.3781783 33.570085,6.3783053 C 33.317768,6.3783415 33.06545,6.3783969 32.813134,6.3786503 C 32.561135,6.3789145 32.309135,6.3794844 32.057136,6.3789155 C 31.792731,6.3776272 31.528163,6.3754747 31.264194,6.358621 C 30.928192,6.3348706 30.59417,6.2935806 30.259243,6.2585132 C 29.9424,6.2411928 29.623899,6.2556697 29.308234,6.216721 C 29.057606,6.1786221 28.823039,6.0968746 28.586692,6.0067869 C 28.293107,5.9246568 27.998707,5.8444301 27.708397,5.7515096 L 29.263724,4.7095281 z"
       transform="translate(20.793031,18.938722)" />
    <path
       style="fill:#00ff00;fill-opacity:1;stroke:none;stroke-opacity:1"
       id="path3363"
       d="M 3.1168348,13.771312 C 3.4871277,13.830242 3.8517342,13.918437 4.2191663,13.993351 C 4.8365888,14.10372 5.4653965,14.120181 6.0908892,14.134004 C 6.6183258,14.131945 7.1429297,14.196644 7.6688677,14.229611 C 8.0515007,14.250739 8.4347714,14.254448 8.8178923,14.254653 C 9.1096113,14.253798 9.4013255,14.251899 9.6930442,14.250937 C 9.9740054,14.249674 10.254968,14.250305 10.535904,14.254183 C 10.982187,14.259328 11.428493,14.259977 11.87479,14.257146 C 12.207864,14.240609 12.545321,14.278998 12.875726,14.230274 C 13.068494,14.196492 13.262384,14.171244 13.457002,14.151266 L 11.967231,15.259246 C 11.774069,15.282733 11.58171,15.312125 11.388239,15.333036 C 11.055505,15.349359 10.72238,15.336526 10.389376,15.336362 C 9.9403422,15.333461 9.4913003,15.334285 9.0422815,15.339402 C 8.7580303,15.343276 8.4737547,15.344192 8.189477,15.343616 C 7.9007121,15.343348 7.611941,15.342724 7.3231966,15.33893 C 6.9406694,15.333468 6.5578076,15.328364 6.1762486,15.298076 C 5.6614564,15.257676 5.1481752,15.190115 4.6309779,15.18897 C 3.9920801,15.170244 3.3496573,15.15468 2.7193715,15.038168 C 2.3411972,14.963105 1.9625517,14.890673 1.5798912,14.842263 L 3.1168348,13.771312 z"
       transform="translate(20.793031,18.938722)" />
    <path
       style="fill:#00ff00;fill-opacity:1;stroke:none;stroke-opacity:1"
       id="path3365"
       d="M 8.6634088,9.7750099 C 8.6458015,10.16178 8.6464925,10.549292 8.6442839,10.93642 C 8.6582983,11.440766 8.6301257,11.942307 8.5881454,12.44451 C 8.5337827,12.858986 8.4688526,13.271539 8.4289363,13.687806 C 8.4021237,14.020874 8.401948,14.355087 8.3983622,14.68895 C 8.3981656,15.018792 8.3983046,15.348617 8.4006285,15.678453 C 8.4028493,15.95185 8.4038991,16.225253 8.4044537,16.498657 C 8.4048478,16.751439 8.40482,17.004221 8.4048186,17.257003 C 8.4298921,17.507752 8.4784656,17.755037 8.5041009,18.005961 C 8.5434103,18.243846 8.5067663,18.474507 8.4645558,18.708057 C 8.4302073,18.897923 8.4195037,19.090656 8.4113731,19.283059 L 6.7503165,20.12233 C 6.7554353,19.923404 6.76162,19.724053 6.7892032,19.526699 C 6.8239609,19.305546 6.8946704,19.092062 6.8549589,18.865832 C 6.8329143,18.608918 6.7901946,18.355593 6.747484,18.101454 C 6.7474896,17.848568 6.7474797,17.595682 6.7478122,17.342797 C 6.7482679,17.068341 6.7491362,16.793887 6.7506446,16.519436 C 6.7520929,16.188741 6.7505754,15.858071 6.7512435,15.527378 C 6.7502863,15.188506 6.7528272,14.849176 6.7774631,14.511059 C 6.8113889,14.090591 6.8881912,13.675821 6.9548568,13.259611 C 6.9964813,12.762612 7.0358084,12.266987 7.0130806,11.767559 C 7.0108963,11.386934 7.0118141,11.005886 6.9939556,10.625639 L 8.6634088,9.7750099 z"
       transform="translate(20.793031,18.938722)" />
    <path
       style="fill:#00ff00;fill-opacity:1;stroke:none;stroke-opacity:1"
       id="path3385"
       d="M 16.418357,13.872083 C 17.620556,13.906529 18.81114,14.095792 20.007704,14.208839 C 21.525842,14.340227 23.049286,14.380783 24.572309,14.397281 L 23.184327,15.399419 C 21.680967,15.324869 20.177069,15.257697 18.675006,15.160028 C 17.424243,15.066311 16.171754,14.895255 14.915705,14.963823 L 16.418357,13.872083 z"
       transform="translate(20.793031,18.938722)" />
    <path
       style="fill:#00ff00;fill-opacity:1;stroke:none;stroke-opacity:1"
       id="path3389"
       d="M 20.665339,9.7587118 C 20.722349,10.222553 20.732976,10.690339 20.742278,11.157055 C 20.752317,11.867666 20.748409,12.578364 20.751788,13.289015 C 20.710129,14.254618 20.729215,15.221865 20.751486,16.187776 C 20.770064,16.589489 20.837044,16.986383 20.87711,17.386039 C 20.897733,17.623421 20.899385,17.86205 20.90283,18.100172 L 19.250272,18.944315 C 19.248893,18.710214 19.246043,18.476078 19.230695,18.242386 C 19.202752,17.829538 19.153408,17.417928 19.150089,17.003664 C 19.172458,16.037771 19.193452,15.070443 19.150914,14.104876 C 19.15304,13.397944 19.150029,12.690864 19.130336,11.984165 C 19.11369,11.535866 19.104462,11.082675 19.013357,10.641937 L 20.665339,9.7587118 z"
       transform="translate(20.793031,18.938722)" />
    <path
       style="fill:#00ff00;fill-opacity:1;stroke:none;stroke-opacity:1"
       id="path3395"
       d="M 27.748495,13.422094 C 28.386624,13.611665 29.070496,13.603923 29.730064,13.632045 C 30.989831,13.655712 32.249313,13.668109 33.508743,13.707449 C 33.974488,13.69315 34.430129,13.792746 34.889985,13.844471 C 35.200366,13.870981 35.509644,13.791535 35.813309,13.73547 C 36.045716,13.691233 36.280557,13.66388 36.515949,13.64216 L 35.029661,14.744938 C 34.799369,14.770068 34.569725,14.800725 34.342514,14.846717 C 34.024589,14.908428 33.699995,14.967203 33.376203,14.914662 C 32.942158,14.850743 32.513228,14.745497 32.071717,14.741097 C 30.826118,14.660344 29.579915,14.646151 28.331923,14.64196 C 27.620099,14.632436 26.882897,14.670449 26.193168,14.464075 L 27.748495,13.422094 z"
       transform="translate(20.793031,18.938722)" />
    <path
       style="fill:#00ff00;fill-opacity:1;stroke:none;stroke-opacity:1"
       id="path3397"
       d="M 32.526448,9.4122312 C 32.500107,9.9556963 32.498962,10.500074 32.495247,11.044059 C 32.492249,11.791325 32.489686,12.538611 32.493317,13.285877 C 32.491367,13.826812 32.50501,14.367614 32.514782,14.908416 C 32.513335,15.237763 32.576715,15.561888 32.603737,15.889377 C 32.627479,16.294591 32.622776,16.699633 32.671404,17.102956 C 32.697134,17.385271 32.74629,17.660115 32.815308,17.934389 C 32.864178,18.127769 32.880543,18.326507 32.892246,18.524917 L 31.23792,19.37883 C 31.229282,19.19133 31.217981,19.003211 31.175925,18.819622 C 31.108969,18.53489 31.057669,18.25152 31.039661,17.958523 C 30.993406,17.553538 30.991036,17.14824 30.966344,16.741621 C 30.935983,16.409373 30.868687,16.079151 30.872291,15.745307 C 30.882015,15.197212 30.895594,14.649118 30.893755,14.100895 C 30.897365,13.354284 30.894848,12.607653 30.891825,11.861043 C 30.888157,11.327662 30.887401,10.793844 30.860624,10.261011 L 32.526448,9.4122312 z"
       transform="translate(20.793031,18.938722)" />
  </g>
</svg>
